<svg version="1.1" id="Layer_1" xmlns="http://www.w3.org/2000/svg" xmlns:xlink="http://www.w3.org/1999/xlink" x="0px" y="0px"
	 width="100%" viewBox="0 0 64 64" enable-background="new 0 0 64 64" xml:space="preserve">
<path fill="#000000" opacity="1.000000" stroke="none" 
	d="
M1.000000,28.000004 
	C1.000000,18.666672 1.000000,9.833342 1.000000,1.000008 
	C22.333326,1.000005 43.666653,1.000005 64.999985,1.000003 
	C64.999985,22.333321 64.999985,43.666641 64.999992,64.999969 
	C43.666687,64.999985 22.333370,64.999985 1.000028,64.999992 
	C1.000000,52.833336 1.000000,40.666668 1.000000,28.000004 
M56.392372,3.000001 
	C38.663902,3.000001 20.935436,3.000001 3.356337,3.000001 
	C3.356337,23.464666 3.356337,43.041866 3.356337,62.729271 
	C23.290497,62.729271 42.867336,62.729271 62.637283,62.729271 
	C62.637283,42.762833 62.637283,23.068695 62.637283,3.000054 
	C60.637463,3.000054 58.998039,3.000054 56.392372,3.000001 
z"/>
<path fill="#3B8686" opacity="1.000000" stroke="none" 
	d="
M56.875496,3.000028 
	C58.998039,3.000054 60.637463,3.000054 62.637283,3.000054 
	C62.637283,23.068695 62.637283,42.762833 62.637283,62.729271 
	C42.867336,62.729271 23.290497,62.729271 3.356337,62.729271 
	C3.356337,43.041866 3.356337,23.464666 3.356337,3.000001 
	C20.935436,3.000001 38.663902,3.000001 56.875496,3.000028 
M11.153824,12.959159 
	C9.232193,12.959159 7.310563,12.959159 5.302371,12.959159 
	C5.302371,29.305454 5.302371,44.967640 5.302371,60.710396 
	C24.017298,60.710396 42.347733,60.710396 60.929100,60.710396 
	C60.929100,58.213707 60.929100,56.080723 60.983402,53.018391 
	C60.983402,39.803589 60.983402,26.588783 60.983402,13.070999 
	C44.210510,13.070999 28.131372,13.070999 11.153824,12.959159 
M21.108027,6.671532 
	C21.118839,8.574806 20.334351,10.959363 23.589840,10.961909 
	C35.861038,10.971508 48.132248,10.965763 60.506958,10.965763 
	C60.506958,8.692697 60.506958,7.018599 60.506958,4.999993 
	C49.916355,4.999993 39.777580,4.943078 29.640211,5.037395 
	C26.880177,5.063073 24.124382,5.544244 21.108027,6.671532 
M18.825098,6.725389 
	C15.285512,6.158751 11.757773,5.355890 8.198721,5.177398 
	C7.202697,5.127445 6.114388,6.917602 5.068412,7.863664 
	C6.188767,8.902801 7.179446,10.584259 8.457497,10.842278 
	C10.839333,11.323136 13.469044,11.342254 15.834318,10.821312 
	C17.047441,10.554126 17.912437,8.706307 18.825098,6.725389 
z"/>
<path fill="#000000" opacity="1.000000" stroke="none" 
	d="
M12.052235,13.070999 
	C28.131372,13.070999 44.210510,13.070999 60.983402,13.070999 
	C60.983402,26.588783 60.983402,39.803589 60.494720,53.488438 
	C51.123470,53.737671 42.240910,53.516853 33.358345,53.296040 
	C33.348774,52.878117 33.339199,52.460194 33.329624,52.042271 
	C34.276379,51.767624 35.223129,51.492977 36.463631,51.133118 
	C31.769817,50.274235 27.451191,49.484005 23.132566,48.693779 
	C23.211002,47.988247 23.289438,47.282711 23.367874,46.577179 
	C27.595463,46.577179 31.823053,46.577179 36.050644,46.577179 
	C28.375162,44.465553 18.307514,48.853916 15.510933,37.041122 
	C22.887663,37.009762 29.799227,37.009762 36.683479,37.009762 
	C36.683479,29.294361 36.683479,22.385511 36.683479,14.927164 
	C28.268894,14.927164 20.157410,14.927164 12.043434,14.617507 
	C12.044707,13.895566 12.048470,13.483283 12.052235,13.070999 
M57.128075,25.470404 
	C57.390125,25.050732 57.893730,24.620001 57.875103,24.213179 
	C57.752327,21.531610 58.487381,17.390297 57.116451,16.482288 
	C54.269482,14.596655 51.431427,16.529596 49.710743,19.770967 
	C46.875568,25.111776 43.495842,30.176786 40.873890,35.612831 
	C39.126976,39.234680 38.297810,43.299179 36.806969,47.948009 
	C42.473305,47.930149 45.133793,45.900204 47.083038,42.650410 
	C50.367027,37.175335 53.639133,31.693138 57.128075,25.470404 
M39.369186,50.524410 
	C45.722786,53.877979 52.198807,51.143761 58.603390,51.962040 
	C58.620628,51.348602 58.637863,50.735165 58.655102,50.121727 
	C52.490238,50.121727 46.325375,50.121727 39.369186,50.524410 
M35.871075,40.129612 
	C31.006365,40.129612 26.141657,40.129612 21.276947,40.129612 
	C21.305765,40.753105 21.334581,41.376602 21.363398,42.000095 
	C24.795805,42.000095 28.237865,42.152210 31.656509,41.935291 
	C33.340763,41.828423 34.981716,41.039249 35.871075,40.129612 
z"/>
<path fill="#B6DE9A" opacity="1.000000" stroke="none" 
	d="
M15.045768,37.072479 
	C18.307514,48.853916 28.375162,44.465553 36.050644,46.577179 
	C31.823053,46.577179 27.595463,46.577179 23.367874,46.577179 
	C23.289438,47.282711 23.211002,47.988247 23.132566,48.693779 
	C27.451191,49.484005 31.769817,50.274235 36.463631,51.133118 
	C35.223129,51.492977 34.276379,51.767624 33.329624,52.042271 
	C33.339199,52.460194 33.348774,52.878117 33.358345,53.296040 
	C42.240910,53.516853 51.123470,53.737671 60.467567,53.953110 
	C60.929100,56.080723 60.929100,58.213707 60.929100,60.710396 
	C42.347733,60.710396 24.017298,60.710396 5.302371,60.710396 
	C5.302371,44.967640 5.302371,29.305454 5.302371,12.959159 
	C7.310563,12.959159 9.232193,12.959159 11.603029,13.015079 
	C12.048470,13.483283 12.044707,13.895566 11.623236,14.671493 
	C7.936298,14.617925 6.832681,16.146500 7.030352,19.295052 
	C7.225386,22.401621 7.070059,25.530128 7.070134,28.649012 
	C7.070328,36.705711 7.070700,36.705711 15.045768,37.072479 
M8.462640,55.548798 
	C8.969667,55.994350 9.473653,56.824009 9.984178,56.828053 
	C18.130453,56.892567 26.277679,56.865135 34.424179,56.797462 
	C34.866749,56.793789 35.304848,56.252312 36.903603,55.194893 
	C26.768879,55.194893 18.002754,55.194893 8.462640,55.548798 
M56.770000,56.803947 
	C57.025776,56.633858 57.399014,56.514748 57.501675,56.278206 
	C57.590374,56.073830 57.373184,55.492451 57.288380,55.491875 
	C51.675163,55.453434 46.061657,55.457119 40.448174,55.457119 
	C40.447140,55.938320 40.446102,56.419518 40.445065,56.900719 
	C45.597488,56.900719 50.749912,56.900719 56.770000,56.803947 
z"/>
<path fill="#A8DBA8" opacity="1.000000" stroke="none" 
	d="
M21.237333,6.243951 
	C24.124382,5.544244 26.880177,5.063073 29.640211,5.037395 
	C39.777580,4.943078 49.916355,4.999993 60.506958,4.999993 
	C60.506958,7.018599 60.506958,8.692697 60.506958,10.965763 
	C48.132248,10.965763 35.861038,10.971508 23.589840,10.961909 
	C20.334351,10.959363 21.118839,8.574806 21.237333,6.243951 
M40.446438,8.831167 
	C45.370365,8.831167 50.294289,8.831167 55.218216,8.831167 
	C55.169785,8.064367 55.121353,7.297568 55.072922,6.530768 
	C49.979809,7.149750 44.886692,7.768732 40.446438,8.831167 
z"/>
<path fill="#79BD9A" opacity="1.000000" stroke="none" 
	d="
M18.879930,7.149104 
	C17.912437,8.706307 17.047441,10.554126 15.834318,10.821312 
	C13.469044,11.342254 10.839333,11.323136 8.457497,10.842278 
	C7.179446,10.584259 6.188767,8.902801 5.068413,7.863664 
	C6.114388,6.917602 7.202697,5.127445 8.198721,5.177398 
	C11.757773,5.355890 15.285512,6.158751 18.879930,7.149104 
z"/>
<path fill="#3E8887" opacity="1.000000" stroke="none" 
	d="
M15.510933,37.041122 
	C7.070700,36.705711 7.070328,36.705711 7.070134,28.649012 
	C7.070059,25.530128 7.225386,22.401621 7.030352,19.295052 
	C6.832681,16.146500 7.936298,14.617925 11.625725,14.981150 
	C20.157410,14.927164 28.268894,14.927164 36.683479,14.927164 
	C36.683479,22.385511 36.683479,29.294361 36.683479,37.009762 
	C29.799227,37.009762 22.887663,37.009762 15.510933,37.041122 
M9.004109,29.195385 
	C9.091401,30.918148 9.178692,32.640911 9.265984,34.363674 
	C9.589457,34.447639 9.912930,34.531609 10.236403,34.615578 
	C12.402936,30.801449 14.569468,26.987320 17.017950,22.676826 
	C18.416504,24.839863 19.299198,26.205055 20.226738,27.639610 
	C21.360271,26.777569 22.321487,26.046572 23.172197,25.399614 
	C27.059000,28.603699 26.041433,37.398041 34.670658,34.369923 
	C34.670658,28.735950 34.670658,23.190807 34.670658,17.451471 
	C26.025370,17.451471 17.709732,17.451471 9.003996,17.451471 
	C9.003996,21.359108 9.003996,24.822447 9.004109,29.195385 
M13.501697,34.658619 
	C15.866328,34.763947 18.230961,34.869274 21.367222,35.008972 
	C19.774458,31.829557 18.636383,29.557775 16.979725,26.250816 
	C15.420634,29.523489 14.376271,31.715700 13.501697,34.658619 
z"/>
<path fill="#3F8987" opacity="1.000000" stroke="none" 
	d="
M57.022156,25.842169 
	C53.639133,31.693138 50.367027,37.175335 47.083038,42.650410 
	C45.133793,45.900204 42.473305,47.930149 36.806969,47.948009 
	C38.297810,43.299179 39.126976,39.234680 40.873890,35.612831 
	C43.495842,30.176786 46.875568,25.111776 49.710743,19.770967 
	C51.431427,16.529596 54.269482,14.596655 57.116451,16.482288 
	C58.487381,17.390297 57.752327,21.531610 57.875103,24.213179 
	C57.893730,24.620001 57.390125,25.050732 57.022156,25.842169 
M43.018322,36.675354 
	C43.104698,38.060650 43.191078,39.445946 43.277458,40.831242 
	C44.376049,40.110249 45.857002,39.634357 46.504509,38.624222 
	C48.834141,34.989887 51.000904,31.235504 52.958126,27.388559 
	C53.480804,26.361225 53.037693,24.842524 53.037975,23.549406 
	C51.904629,24.112989 50.320057,24.379307 49.718132,25.292984 
	C47.435928,28.757223 45.471935,32.431091 43.018322,36.675354 
z"/>
<path fill="#3B8686" opacity="1.000000" stroke="none" 
	d="
M39.764847,50.323067 
	C46.325375,50.121727 52.490238,50.121727 58.655102,50.121727 
	C58.637863,50.735165 58.620628,51.348602 58.603390,51.962040 
	C52.198807,51.143761 45.722786,53.877979 39.764847,50.323067 
z"/>
<path fill="#3B8686" opacity="1.000000" stroke="none" 
	d="
M36.256668,40.344219 
	C34.981716,41.039249 33.340763,41.828423 31.656509,41.935291 
	C28.237865,42.152210 24.795805,42.000095 21.363398,42.000095 
	C21.334581,41.376602 21.305765,40.753105 21.276947,40.129612 
	C26.141657,40.129612 31.006365,40.129612 36.256668,40.344219 
z"/>
<path fill="#3D8886" opacity="1.000000" stroke="none" 
	d="
M8.849635,55.371845 
	C18.002754,55.194893 26.768879,55.194893 36.903603,55.194893 
	C35.304848,56.252312 34.866749,56.793789 34.424179,56.797462 
	C26.277679,56.865135 18.130453,56.892567 9.984178,56.828053 
	C9.473653,56.824009 8.969667,55.994350 8.849635,55.371845 
z"/>
<path fill="#3F8887" opacity="1.000000" stroke="none" 
	d="
M56.336166,56.852333 
	C50.749912,56.900719 45.597488,56.900719 40.445065,56.900719 
	C40.446102,56.419518 40.447140,55.938320 40.448174,55.457119 
	C46.061657,55.457119 51.675163,55.453434 57.288380,55.491875 
	C57.373184,55.492451 57.590374,56.073830 57.501675,56.278206 
	C57.399014,56.514748 57.025776,56.633858 56.336166,56.852333 
z"/>
<path fill="#3E8887" opacity="1.000000" stroke="none" 
	d="
M40.120010,8.609440 
	C44.886692,7.768732 49.979809,7.149750 55.072922,6.530768 
	C55.121353,7.297568 55.169785,8.064367 55.218216,8.831167 
	C50.294289,8.831167 45.370365,8.831167 40.120010,8.609440 
z"/>
<path fill="#A6DAA7" opacity="1.000000" stroke="none" 
	d="
M9.004053,28.740585 
	C9.003996,24.822447 9.003996,21.359108 9.003996,17.451471 
	C17.709732,17.451471 26.025370,17.451471 34.670658,17.451471 
	C34.670658,23.190807 34.670658,28.735950 34.670658,34.369923 
	C26.041433,37.398041 27.059000,28.603699 23.172197,25.399614 
	C22.321487,26.046572 21.360271,26.777569 20.226738,27.639610 
	C19.299198,26.205055 18.416504,24.839863 17.017950,22.676826 
	C14.569468,26.987320 12.402936,30.801449 10.236403,34.615578 
	C9.912930,34.531609 9.589457,34.447639 9.265984,34.363674 
	C9.178692,32.640911 9.091401,30.918148 9.004053,28.740585 
M28.885967,24.679131 
	C31.660299,25.195120 33.257496,24.037476 32.615425,21.264265 
	C32.409100,20.373104 30.201420,19.096210 29.333923,19.365173 
	C26.647030,20.198235 26.338221,22.135317 28.885967,24.679131 
z"/>
<path fill="#C4E89C" opacity="1.000000" stroke="none" 
	d="
M13.416803,34.283264 
	C14.376271,31.715700 15.420634,29.523489 16.979725,26.250816 
	C18.636383,29.557775 19.774458,31.829557 21.367222,35.008972 
	C18.230961,34.869274 15.866328,34.763947 13.416803,34.283264 
z"/>
<path fill="#C4E89C" opacity="1.000000" stroke="none" 
	d="
M43.203629,36.350960 
	C45.471935,32.431091 47.435928,28.757223 49.718132,25.292984 
	C50.320057,24.379307 51.904629,24.112989 53.037975,23.549406 
	C53.037693,24.842524 53.480804,26.361225 52.958126,27.388559 
	C51.000904,31.235504 48.834141,34.989887 46.504509,38.624222 
	C45.857002,39.634357 44.376049,40.110249 43.277458,40.831242 
	C43.191078,39.445946 43.104698,38.060650 43.203629,36.350960 
z"/>
<path fill="#4A928B" opacity="1.000000" stroke="none" 
	d="
M28.568075,24.483349 
	C26.338221,22.135317 26.647030,20.198235 29.333923,19.365173 
	C30.201420,19.096210 32.409100,20.373104 32.615425,21.264265 
	C33.257496,24.037476 31.660299,25.195120 28.568075,24.483349 
z"/>
</svg>