<?xml version="1.0" encoding="UTF-8"?>
<svg version="1.1" xmlns="http://www.w3.org/2000/svg" width="48" height="48">
<path d="M0 0 C0.72711182 0.00404846 1.45422363 0.00809692 2.20336914 0.01226807 C2.95046143 0.01035461 3.69755371 0.00844116 4.46728516 0.00646973 C6.04761085 0.00510809 7.62794772 0.00880307 9.20825195 0.01715088 C11.63135836 0.02785107 14.05372337 0.01725527 16.47680664 0.00445557 C18.01066245 0.00577717 19.54451779 0.00833957 21.07836914 0.01226807 C21.80548096 0.0082196 22.53259277 0.00417114 23.28173828 0 C28.41094553 0.04796946 28.41094553 0.04796946 30.64086914 2.27789307 C30.8996582 5.22711182 30.8996582 5.22711182 30.90649414 8.96539307 C30.90936432 9.95285522 30.90936432 9.95285522 30.91229248 10.96026611 C30.91365364 12.35227846 30.90996197 13.74430353 30.90161133 15.1362915 C30.89091014 17.26971895 30.9015082 19.40230437 30.91430664 21.53570557 C30.91298503 22.88726993 30.91042261 24.23883377 30.90649414 25.59039307 C30.90423828 26.82402588 30.90198242 28.05765869 30.8996582 29.32867432 C30.64086914 32.27789307 30.64086914 32.27789307 28.64086914 34.27789307 C25.75512695 34.51739502 25.75512695 34.51739502 22.09399414 34.51617432 C20.76065073 34.53160299 19.42731722 34.54790727 18.09399414 34.56500244 C15.9961155 34.58140742 13.89896243 34.59042049 11.80102539 34.58331299 C9.77285432 34.58067713 7.74687151 34.60892842 5.71899414 34.64117432 C3.89996582 34.64564575 3.89996582 34.64564575 2.04418945 34.65020752 C-2.42677707 35.47480256 -4.11836991 37.16056316 -7.35913086 40.27789307 C-7.40848595 34.90274402 -7.44482888 29.52772622 -7.46899414 24.15240479 C-7.4790657 22.32295434 -7.49272362 20.49352004 -7.51000977 18.66412354 C-7.53420763 16.03794373 -7.54560218 13.41197632 -7.55444336 10.78570557 C-7.56476593 9.96482452 -7.5750885 9.14394348 -7.58572388 8.29818726 C-7.5861227 6.29000164 -7.48162626 4.28233925 -7.35913086 2.27789307 C-4.87062412 -0.21061367 -3.39703026 0.03176976 0 0 Z " fill="#8AC349" transform="translate(12.359130859375,4.72210693359375)"/>
</svg>
