<?xml version="1.0" encoding="UTF-8"?>
<svg version="1.1" xmlns="http://www.w3.org/2000/svg" width="64" height="64">
<path d="M0 0 C13.2 0 26.4 0 40 0 C42.61358545 5.22717091 41.56833347 13.2588949 41.6796875 19.0637207 C41.72618442 20.96412106 41.79419764 22.86412906 41.88476562 24.76293945 C42.6951575 42.06389874 42.6951575 42.06389874 37.80873108 48.3394165 C33.22479072 53.11964214 28.86805515 54.66133943 22.36328125 55.07421875 C19.65937911 55.00149767 17.00577549 54.87538795 14.3125 54.6875 C12.91751382 54.63218074 11.52231333 54.58201564 10.12695312 54.53710938 C6.74571005 54.40841154 3.37572087 54.22845626 0 54 C-1.22532576 51.54934849 -1.12691158 49.95426623 -1.12939453 47.21484375 C-1.13254669 46.2204126 -1.13569885 45.22598145 -1.13894653 44.20141602 C-1.1369223 43.12432373 -1.13489807 42.04723145 -1.1328125 40.9375 C-1.13376923 39.835271 -1.13472595 38.73304199 -1.13571167 37.59741211 C-1.13639306 35.26383406 -1.13454163 32.93025411 -1.13037109 30.59667969 C-1.1250223 27.01493085 -1.1303175 23.43330742 -1.13671875 19.8515625 C-1.13605796 17.58854139 -1.13477678 15.32552036 -1.1328125 13.0625 C-1.13584885 11.44686157 -1.13584885 11.44686157 -1.13894653 9.79858398 C-1.13579437 8.80415283 -1.13264221 7.80972168 -1.12939453 6.78515625 C-1.12859894 5.90738525 -1.12780334 5.02961426 -1.12698364 4.12524414 C-1 2 -1 2 0 0 Z " fill="#0BD656" transform="translate(12,5)"/>
<path d="M0 0 C2.475 0.495 2.475 0.495 5 1 C5 14.2 5 27.4 5 41 C0.545 41.495 0.545 41.495 -4 42 C-4.33 45.3 -4.66 48.6 -5 52 C-9.47915328 52.02886338 -13.95828291 52.04675187 -18.4375 52.0625 C-19.71689453 52.07087891 -20.99628906 52.07925781 -22.31445312 52.08789062 C-23.52939453 52.09111328 -24.74433594 52.09433594 -25.99609375 52.09765625 C-27.12200928 52.10289307 -28.2479248 52.10812988 -29.40795898 52.11352539 C-32 52 -32 52 -33 51 C-33.08631874 49.65732587 -33.10706473 48.31025678 -33.09765625 46.96484375 C-33.09443359 46.15595703 -33.09121094 45.34707031 -33.08789062 44.51367188 C-33.07951172 43.66353516 -33.07113281 42.81339844 -33.0625 41.9375 C-33.05798828 41.08349609 -33.05347656 40.22949219 -33.04882812 39.34960938 C-33.03700373 37.23304337 -33.01906769 35.11651315 -33 33 C-30.525 32.505 -30.525 32.505 -28 32 C-27.67 30.68 -27.34 29.36 -27 28 C-23.61363691 27.25484101 -20.38056897 26.83229437 -16.91796875 26.68359375 C-16.0777417 26.64548584 -15.23751465 26.60737793 -14.37182617 26.56811523 C-13.32099854 26.52501221 -12.2701709 26.48190918 -11.1875 26.4375 C-7.825625 26.293125 -4.46375 26.14875 -1 26 C-0.67 17.42 -0.34 8.84 0 0 Z " fill="#0CDB58" transform="translate(46,6)"/>
<path d="M0 0 C13.2 0 26.4 0 40 0 C42.61358545 5.22717091 41.56833347 13.2588949 41.6796875 19.0637207 C41.72618442 20.96412106 41.79419764 22.86412906 41.88476562 24.76293945 C42.6951575 42.06389874 42.6951575 42.06389874 37.80873108 48.3394165 C33.22479072 53.11964214 28.86805515 54.66133943 22.36328125 55.07421875 C19.65937911 55.00149767 17.00577549 54.87538795 14.3125 54.6875 C12.91751382 54.63218074 11.52231333 54.58201564 10.12695312 54.53710938 C6.74571005 54.40841154 3.37572087 54.22845626 0 54 C-1.22532576 51.54934849 -1.12691158 49.95426623 -1.12939453 47.21484375 C-1.13254669 46.2204126 -1.13569885 45.22598145 -1.13894653 44.20141602 C-1.1369223 43.12432373 -1.13489807 42.04723145 -1.1328125 40.9375 C-1.13376923 39.835271 -1.13472595 38.73304199 -1.13571167 37.59741211 C-1.13639306 35.26383406 -1.13454163 32.93025411 -1.13037109 30.59667969 C-1.1250223 27.01493085 -1.1303175 23.43330742 -1.13671875 19.8515625 C-1.13605796 17.58854139 -1.13477678 15.32552036 -1.1328125 13.0625 C-1.13584885 11.44686157 -1.13584885 11.44686157 -1.13894653 9.79858398 C-1.13579437 8.80415283 -1.13264221 7.80972168 -1.12939453 6.78515625 C-1.12859894 5.90738525 -1.12780334 5.02961426 -1.12698364 4.12524414 C-1 2 -1 2 0 0 Z M1 2 C0.91368126 3.34267413 0.89293527 4.68974322 0.90234375 6.03515625 C0.90556641 6.84404297 0.90878906 7.65292969 0.91210938 8.48632812 C0.92048828 9.33646484 0.92886719 10.18660156 0.9375 11.0625 C0.94201172 11.91650391 0.94652344 12.77050781 0.95117188 13.65039062 C0.96299627 15.76695663 0.98093231 17.88348685 1 20 C2.65 20.33 4.3 20.66 6 21 C7.28571429 29.57142857 7.28571429 29.57142857 6 33 C3.525 33.495 3.525 33.495 1 34 C0.97316013 36.97922593 0.95323963 39.95821295 0.9375 42.9375 C0.92912109 43.78763672 0.92074219 44.63777344 0.91210938 45.51367188 C0.90888672 46.32255859 0.90566406 47.13144531 0.90234375 47.96484375 C0.89710693 48.7137085 0.89187012 49.46257324 0.88647461 50.23413086 C0.80658248 52.02667739 0.80658248 52.02667739 2 53 C3.99964982 53.08758003 6.0023611 53.10696576 8.00390625 53.09765625 C9.21884766 53.09443359 10.43378906 53.09121094 11.68554688 53.08789062 C12.96494141 53.07951172 14.24433594 53.07113281 15.5625 53.0625 C17.48739258 53.05573242 17.48739258 53.05573242 19.45117188 53.04882812 C22.63416022 53.03699545 25.81705762 53.02051068 29 53 C29.33 49.7 29.66 46.4 30 43 C34.455 42.505 34.455 42.505 39 42 C39.02464705 36.32169922 39.04283462 30.64342931 39.05493164 24.96508789 C39.05997256 23.03181415 39.06680519 21.09854424 39.07543945 19.1652832 C39.08751565 16.39273128 39.09323057 13.62022959 39.09765625 10.84765625 C39.10281754 9.97786636 39.10797882 9.10807648 39.11329651 8.21192932 C39.11349185 6.14094186 39.06208168 4.07005676 39 2 C37.21169552 0.21169552 34.80418848 0.87151289 32.42358398 0.86105347 C31.64442627 0.8630777 30.86526855 0.86510193 30.0625 0.8671875 C29.267229 0.86623077 28.47195801 0.86527405 27.65258789 0.86428833 C25.9679354 0.86360657 24.28328029 0.86546057 22.59863281 0.86962891 C20.01100803 0.87497725 17.42355684 0.86968381 14.8359375 0.86328125 C13.20312461 0.86394203 11.57031184 0.8652232 9.9375 0.8671875 C9.15834229 0.86516327 8.37918457 0.86313904 7.57641602 0.86105347 C3.992058 0.5416042 3.992058 0.5416042 1 2 Z " fill="#412F1D" transform="translate(12,5)"/>
<path d="M0 0 C0.66 0 1.32 0 2 0 C2 5.94 2 11.88 2 18 C3.65 18 5.3 18 7 18 C7.33 19.65 7.66 21.3 8 23 C9.65 23 11.3 23 13 23 C13 23.33 13 23.66 13 24 C11.35 24 9.7 24 8 24 C8 24.66 8 25.32 8 26 C9.65 26 11.3 26 13 26 C13 26.33 13 26.66 13 27 C11.35 27 9.7 27 8 27 C7.67 28.65 7.34 30.3 7 32 C5.35 32 3.7 32 2 32 C2 38.6 2 45.2 2 52 C0 50 0 50 -0.24050903 47.86129761 C-0.23606781 46.9774942 -0.23162659 46.0936908 -0.22705078 45.18310547 C-0.22689972 44.18221893 -0.22674866 43.1813324 -0.22659302 42.15011597 C-0.21627045 41.06674957 -0.20594788 39.98338318 -0.1953125 38.8671875 C-0.1924826 37.76021515 -0.18965271 36.6532428 -0.18673706 35.51272583 C-0.17551519 31.96670863 -0.15040691 28.42094125 -0.125 24.875 C-0.1149728 22.47526406 -0.1058465 20.07552417 -0.09765625 17.67578125 C-0.07556932 11.78376849 -0.04207207 5.89190209 0 0 Z " fill="#3D2E1B" transform="translate(11,7)"/>
<path d="M0 0 C2.475 0.495 2.475 0.495 5 1 C5 14.2 5 27.4 5 41 C3.68 41 2.36 41 1 41 C0.67 27.47 0.34 13.94 0 0 Z " fill="#96E7C2" transform="translate(46,6)"/>
<path d="M0 0 C1.65 0 3.3 0 5 0 C5.33 1.65 5.66 3.3 6 5 C7.65 5 9.3 5 11 5 C11 5.33 11 5.66 11 6 C9.35 6 7.7 6 6 6 C6 6.66 6 7.32 6 8 C7.65 8 9.3 8 11 8 C11 8.33 11 8.66 11 9 C9.35 9 7.7 9 6 9 C5.67 10.65 5.34 12.3 5 14 C3.35 14 1.7 14 0 14 C0 9.38 0 4.76 0 0 Z " fill="#295B3D" transform="translate(13,25)"/>
<path d="M0 0 C1.23556641 0.01740234 1.23556641 0.01740234 2.49609375 0.03515625 C3.32238281 0.04417969 4.14867187 0.05320313 5 0.0625 C5.63808594 0.07410156 6.27617188 0.08570313 6.93359375 0.09765625 C0.78325206 7.58057197 0.78325206 7.58057197 -3.06640625 10.09765625 C-3.09329841 8.61858733 -3.11275246 7.13938142 -3.12890625 5.66015625 C-3.14050781 4.83644531 -3.15210938 4.01273438 -3.1640625 3.1640625 C-3.03158405 0.36081842 -2.80324408 0.13247845 0 0 Z " fill="#102611" transform="translate(44.06640625,46.90234375)"/>
<path d="M0 0 C0.99 0 1.98 0 3 0 C3 2.64 3 5.28 3 8 C2.01 8 1.02 8 0 8 C0 5.36 0 2.72 0 0 Z " fill="#257044" transform="translate(13,28)"/>
</svg>
