<svg version="1.1" id="Layer_1" xmlns="http://www.w3.org/2000/svg" xmlns:xlink="http://www.w3.org/1999/xlink" x="0px" y="0px"
	 width="100%" viewBox="0 0 500 500" enable-background="new 0 0 500 500" xml:space="preserve">
<path fill="#FFFFFF" opacity="1.000000" stroke="none" 
	d="
M328.000000,501.000000 
	C218.666687,501.000000 109.833382,501.000000 1.000058,501.000000 
	C1.000039,334.333405 1.000039,167.666794 1.000019,1.000148 
	C167.666565,1.000099 334.333130,1.000099 500.999756,1.000049 
	C500.999847,167.666519 500.999847,334.333038 500.999939,500.999786 
	C443.500000,501.000000 386.000000,501.000000 328.000000,501.000000 
M226.500641,118.000488 
	C202.577393,141.924011 178.624847,165.818329 154.744644,189.784729 
	C144.496933,200.069443 144.601379,214.094009 154.849594,224.351791 
	C173.342651,242.862106 191.849960,261.358215 210.351395,279.860229 
	C218.683533,288.192627 226.789764,296.767731 235.408569,304.792267 
	C244.975372,313.699463 258.359222,313.123535 267.603485,303.891602 
	C294.254272,277.276337 320.882690,250.638718 347.503906,223.993851 
	C356.841705,214.647736 357.201416,199.856049 347.888977,190.467789 
	C321.481720,163.845535 294.985779,137.309631 268.333038,110.933434 
	C258.794952,101.494331 245.835342,100.810394 235.928513,108.765144 
	C232.697647,111.359383 229.962570,114.571068 226.500641,118.000488 
M232.073990,353.321045 
	C232.073990,355.094269 232.073990,356.867493 232.073990,359.031097 
	C234.329910,358.929565 235.902405,358.858826 238.006088,358.764160 
	C238.006088,354.733978 238.006088,351.053070 238.006088,347.130646 
	C243.306763,350.419983 242.306473,360.019684 251.497513,358.797485 
	C251.497513,351.735168 251.515335,345.098297 251.477707,338.461761 
	C251.472244,337.497986 251.201233,336.535706 250.990158,335.163666 
	C249.308441,335.243317 247.769241,335.316193 245.658813,335.416168 
	C245.658813,339.541718 245.658813,343.187622 245.658813,348.329163 
	C243.147263,344.288910 241.404999,341.672272 239.856567,338.945526 
	C238.138000,335.919159 236.174805,333.837585 232.073990,336.033417 
	C232.073990,341.439209 232.073990,346.902557 232.073990,353.321045 
M275.374390,350.316284 
	C275.264496,348.890350 275.154633,347.464386 275.042358,346.007446 
	C271.710114,346.007446 268.770844,346.007446 265.831573,346.007446 
	C265.459290,346.380249 265.086975,346.753021 264.714661,347.125824 
	C266.096405,348.867462 267.478180,350.609131 269.450531,353.095215 
	C267.701508,353.439880 265.732269,354.447388 264.374268,353.910095 
	C263.170807,353.433899 262.287872,351.326172 261.918518,349.782013 
	C261.505249,348.054138 261.553711,346.092834 261.917419,344.340210 
	C262.221161,342.876831 262.990112,340.759125 264.057434,340.390167 
	C265.475861,339.899719 267.443451,340.648163 269.066345,341.190063 
	C270.959778,341.822296 272.735931,342.805817 275.114624,343.887878 
	C274.552704,337.456818 271.771942,335.027527 266.163086,334.838593 
	C260.468811,334.646729 256.496826,337.438965 256.046082,342.177063 
	C255.811020,344.648071 255.944794,347.157074 255.961807,349.648621 
	C256.005554,356.054108 258.563965,358.927704 264.628632,359.432220 
	C270.639496,359.932312 274.359467,357.045593 275.374390,350.316284 
M289.932373,344.548767 
	C289.932373,349.306915 289.932373,354.065063 289.932373,359.138824 
	C292.213623,358.947113 293.775116,358.815918 295.486084,358.672119 
	C295.667206,355.541718 295.824646,352.820923 295.978271,350.165955 
	C298.760101,350.165955 301.030457,350.165955 303.411652,350.165955 
	C303.583801,353.168823 303.741638,355.922211 303.901733,358.714905 
	C305.827820,358.714905 307.396637,358.714905 309.046875,358.714905 
	C309.046875,350.822083 309.046875,343.235382 309.046875,335.421692 
	C307.234772,335.421692 305.673798,335.421692 303.932434,335.421692 
	C303.722504,338.443817 303.532440,341.179901 303.330811,344.082245 
	C300.723114,344.082245 298.482117,344.082245 296.282318,344.082245 
	C294.833862,334.919800 294.833862,334.919800 289.932373,335.815857 
	C289.932373,338.335480 289.932373,340.952606 289.932373,344.548767 
M373.352814,359.013275 
	C375.124603,359.013275 376.896423,359.013275 379.082703,359.013275 
	C378.871857,356.917938 378.733368,355.541351 378.564026,353.858551 
	C374.354675,353.858551 370.560577,353.858551 366.343811,353.858551 
	C366.518921,352.103271 366.654938,350.740021 366.824280,349.042480 
	C370.361084,349.042480 373.481934,349.042480 376.987885,349.042480 
	C376.900879,347.279327 376.833710,345.917999 376.739380,344.006531 
	C373.110474,344.006531 369.868011,344.006531 365.747528,344.006531 
	C368.802551,337.311066 374.626068,342.300049 378.256805,339.325348 
	C378.176483,338.261749 378.069153,336.840546 377.957703,335.364441 
	C372.132355,335.364441 366.694794,335.364441 361.071289,335.364441 
	C361.071289,343.315887 361.071289,351.026337 361.071289,359.013275 
	C365.094849,359.013275 368.748169,359.013275 373.352814,359.013275 
M161.099991,344.148193 
	C159.146820,344.148193 157.193665,344.148193 155.240494,344.148193 
	C154.953110,343.647675 154.665710,343.147156 154.378326,342.646606 
	C155.419250,341.870178 156.377594,340.618774 157.519012,340.420319 
	C159.622787,340.054565 161.886902,340.583588 163.977921,340.183838 
	C165.000061,339.988434 166.205368,338.665192 166.506775,337.616455 
	C166.671265,337.044159 165.153152,335.287079 164.339355,335.249634 
	C159.396896,335.022339 154.438751,335.136292 149.333389,335.136292 
	C149.333389,343.391754 149.333389,351.084045 149.333389,358.862854 
	C155.356766,358.862854 160.982788,358.862854 166.760986,358.862854 
	C166.760986,357.175507 166.760986,355.647339 166.760986,353.730042 
	C162.600418,353.730042 158.827499,353.730042 154.819672,353.730042 
	C154.905167,352.045105 154.970093,350.765625 155.059143,349.010437 
	C158.522018,349.010437 161.772034,349.010437 165.045929,349.010437 
	C165.559158,345.979065 165.695999,343.726685 161.099991,344.148193 
M129.930664,357.149994 
	C129.930664,354.872559 129.930664,352.595123 129.930664,350.240906 
	C132.837341,350.240906 135.215164,350.240906 138.079681,350.240906 
	C138.079681,353.293274 138.079681,356.033051 138.079681,359.108276 
	C140.157990,358.958923 141.717331,358.846863 143.358795,358.728912 
	C143.358795,350.735382 143.358795,343.175079 143.358795,335.429443 
	C141.459610,335.429443 139.907303,335.429443 138.138519,335.429443 
	C137.965088,338.478882 137.808716,341.228180 137.654892,343.932587 
	C134.921906,343.932587 132.551880,343.932587 129.943039,343.932587 
	C129.943039,341.575500 130.254379,339.525146 129.817276,337.649200 
	C129.583817,336.647247 128.076080,335.311676 127.111786,335.285339 
	C126.118889,335.258179 124.232582,336.611755 124.206703,337.408936 
	C123.976723,344.491425 124.072952,351.584473 124.072952,359.494690 
	C126.514076,358.869476 128.140808,358.452850 129.930664,357.149994 
M330.039520,357.645050 
	C335.235077,353.593567 333.033539,347.878876 333.206940,342.791809 
	C333.361359,338.260651 330.351624,335.879395 326.206543,335.050873 
	C317.914337,333.393463 313.970520,337.499207 313.975189,347.592773 
	C313.980103,358.193207 319.352356,361.832947 330.039520,357.645050 
M187.992264,347.372589 
	C186.775620,344.115082 185.767227,340.754669 184.234375,337.653442 
	C183.663544,336.498535 181.919220,335.418640 180.612000,335.288422 
	C179.517761,335.179443 177.615005,336.236023 177.214020,337.235382 
	C174.406128,344.233154 171.895401,351.350128 169.289597,358.428986 
	C169.689651,358.875244 170.089722,359.321503 170.489777,359.767792 
	C172.268768,358.668579 173.937469,356.952698 175.851822,356.610291 
	C178.965454,356.053467 182.306671,355.989258 185.422226,356.503082 
	C187.429138,356.834076 189.204254,358.570496 191.083267,359.677002 
	C191.386032,359.227325 191.688797,358.777679 191.991547,358.328003 
	C190.729904,354.925934 189.468246,351.523865 187.992264,347.372589 
M337.932373,345.524109 
	C337.932373,349.954346 337.932373,354.384552 337.932373,358.826691 
	C340.105286,358.826691 341.569580,358.826691 343.373566,358.826691 
	C343.577240,356.585205 343.766510,354.502106 343.976562,352.190247 
	C345.594025,352.098358 347.065643,352.084625 348.520020,351.919373 
	C353.481354,351.355682 356.362976,348.483795 356.561554,343.982178 
	C356.760681,339.467834 354.124969,336.046265 349.266144,335.439240 
	C345.716370,334.995789 342.066620,335.352478 337.932373,335.352478 
	C337.932373,338.648285 337.932373,341.595764 337.932373,345.524109 
M215.131866,356.558411 
	C215.902344,357.374847 216.618713,358.824341 217.452881,358.895630 
	C220.679016,359.171387 223.942734,359.007690 227.192444,359.007690 
	C227.759995,358.772217 228.327530,358.536713 228.895081,358.301239 
	C221.266403,350.837311 223.821091,343.148163 228.256256,335.130463 
	C223.700958,335.130463 220.733124,335.037811 217.777924,335.190094 
	C216.952423,335.232635 215.666122,335.844543 215.474045,336.467468 
	C215.175949,337.434204 215.252258,338.926971 215.834534,339.688538 
	C219.877167,344.975983 219.674713,351.672394 215.131866,356.558411 
M195.073975,351.410706 
	C195.073975,353.827545 195.073975,356.244385 195.073975,358.834229 
	C201.082703,358.834229 206.347397,358.834229 211.888580,358.834229 
	C211.888580,357.223541 211.888580,355.686981 211.888580,353.773438 
	C208.116730,353.773438 204.697968,353.773438 200.931335,353.773438 
	C200.931335,348.292542 201.088196,343.174011 200.800415,338.080566 
	C200.742111,337.048676 199.013290,335.354950 198.038498,335.343506 
	C197.062393,335.332092 195.296249,336.983154 195.213974,338.012390 
	C194.884735,342.131561 195.075546,346.292267 195.073975,351.410706 
z"/>
<path fill="#FEFBE5" opacity="1.000000" stroke="none" 
	d="
M226.750687,117.750427 
	C229.962570,114.571068 232.697647,111.359383 235.928513,108.765144 
	C245.835342,100.810394 258.794952,101.494331 268.333038,110.933434 
	C294.985779,137.309631 321.481720,163.845535 347.888977,190.467789 
	C357.201416,199.856049 356.841705,214.647736 347.503906,223.993851 
	C320.882690,250.638718 294.254272,277.276337 267.603485,303.891602 
	C258.359222,313.123535 244.975372,313.699463 235.408569,304.792267 
	C226.789764,296.767731 218.683533,288.192627 210.351395,279.860229 
	C191.849960,261.358215 173.342651,242.862106 154.849594,224.351791 
	C144.601379,214.094009 144.496933,200.069443 154.744644,189.784729 
	C178.624847,165.818329 202.577393,141.924011 226.750687,117.750427 
M256.001190,192.997543 
	C256.001190,192.997543 255.997772,193.068375 256.716370,193.054901 
	C259.318451,190.834000 262.933502,189.118225 264.338623,186.300461 
	C269.151154,176.649567 273.367096,166.684906 277.442413,156.689804 
	C279.364075,151.976746 276.249664,148.023499 271.113678,147.991302 
	C264.612244,147.950546 260.019318,151.166626 257.200684,156.836380 
	C255.132477,160.996552 253.421738,165.334442 250.866516,169.168121 
	C249.196503,165.780960 247.415833,162.443069 245.880676,158.995850 
	C243.125168,152.808289 239.001633,148.396606 231.826431,148.034485 
	C225.551941,147.717804 222.487549,151.986465 224.908829,157.718582 
	C228.524460,166.278198 232.397232,174.728882 236.052933,183.271973 
	C239.494461,191.314499 245.315979,195.130920 254.725525,193.852814 
	C255.174362,193.568695 255.623184,193.284561 256.001190,192.997543 
M237.048325,202.324677 
	C234.981674,199.610245 233.485352,195.757202 230.746292,194.385223 
	C220.704529,189.355408 210.339478,184.926315 199.907242,180.742050 
	C195.546722,178.993103 192.105270,181.905090 191.815979,186.591309 
	C191.398697,193.350464 194.565338,198.062180 200.388626,201.004425 
	C204.815018,203.240906 209.429306,205.105515 213.551804,207.674911 
	C208.075134,210.424225 202.372925,212.810150 197.187485,216.028687 
	C192.343918,219.035034 190.301086,227.074036 192.611847,231.026413 
	C194.811172,234.788254 198.502335,234.915421 205.560959,231.730530 
	C213.122849,228.318542 220.742813,225.034409 228.354813,221.734573 
	C235.744171,218.531265 239.511108,210.638367 237.048325,202.324677 
M251.275146,245.101913 
	C253.204193,249.137177 255.113297,253.182129 257.067474,257.205170 
	C259.365875,261.936920 262.849762,265.662476 268.140015,266.314941 
	C270.742310,266.635895 274.235687,265.685150 276.109100,263.976135 
	C277.472321,262.732544 277.375549,259.209015 276.961060,256.873962 
	C276.479553,254.161591 275.025360,251.597641 273.843658,249.038391 
	C270.368500,241.512161 267.270447,233.761414 263.160675,226.594070 
	C259.675385,220.515793 251.239471,218.665970 245.270752,221.827332 
	C242.501282,224.233383 238.702026,226.114075 237.156036,229.144333 
	C232.573807,238.125854 228.781479,247.519333 224.875809,256.833740 
	C222.516434,262.460449 225.706085,266.924316 231.811310,266.589844 
	C238.013443,266.250031 242.309418,262.833496 244.945923,257.347412 
	C246.950516,253.176193 248.752625,248.907669 251.275146,245.101913 
M288.456116,207.184174 
	C289.479980,206.675323 290.539459,206.226852 291.521820,205.647583 
	C296.759277,202.559311 302.309052,199.868896 307.091919,196.185364 
	C310.595825,193.486832 311.307159,185.492706 309.085541,182.790588 
	C305.425598,178.339005 301.363190,180.573792 297.353546,182.346329 
	C289.751495,185.706955 282.135529,189.036575 274.509094,192.341537 
	C265.825226,196.104767 262.058594,203.932510 265.052795,212.777084 
	C267.237366,215.410660 268.900879,219.075745 271.701202,220.490448 
	C281.297699,225.338516 291.218048,229.579102 301.167999,233.679840 
	C306.115234,235.718765 310.131470,232.581696 310.179016,227.295853 
	C310.238068,220.732285 306.878174,216.313492 301.243530,213.543976 
	C296.937317,211.427429 292.462494,209.653992 288.456116,207.184174 
M178.616684,218.399124 
	C185.027527,215.749527 187.782227,211.471298 186.948318,205.459579 
	C186.293808,200.741180 181.969421,196.460342 177.402420,196.009781 
	C171.284439,195.406204 167.055679,198.084702 164.809921,203.419632 
	C161.839386,210.476273 168.207367,220.613388 178.616684,218.399124 
M336.882812,212.068604 
	C338.750824,205.945251 337.447449,201.175598 333.011932,197.903214 
	C329.373077,195.218582 323.614471,195.178726 319.970398,197.787247 
	C315.729553,200.822952 314.106232,205.061020 315.202576,209.981628 
	C316.208710,214.497299 319.234955,217.632080 323.920776,218.526917 
	C329.383972,219.570206 333.680725,217.652451 336.882812,212.068604 
M257.623291,122.621407 
	C251.673019,119.108574 244.767700,121.005653 241.878662,124.802353 
	C238.892197,128.727066 239.059525,135.879105 242.398575,139.558975 
	C246.671463,144.268005 254.305435,144.581177 258.929443,140.237167 
	C263.666016,135.787460 263.384491,128.353470 257.623291,122.621407 
M241.897491,275.632812 
	C241.240128,278.636261 240.030441,281.642792 240.047180,284.642487 
	C240.076614,289.921478 245.233856,294.015472 251.007370,294.014374 
	C256.728210,294.013336 261.596954,289.864166 262.079956,284.618164 
	C262.541138,279.609344 261.516174,275.277161 256.588745,272.827576 
	C251.370117,270.233185 246.623520,271.078766 241.897491,275.632812 
z"/>
<path fill="#3C7E30" opacity="1.000000" stroke="none" 
	d="
M232.073990,352.843475 
	C232.073990,346.902557 232.073990,341.439209 232.073990,336.033417 
	C236.174805,333.837585 238.138000,335.919159 239.856567,338.945526 
	C241.404999,341.672272 243.147263,344.288910 245.658813,348.329163 
	C245.658813,343.187622 245.658813,339.541718 245.658813,335.416168 
	C247.769241,335.316193 249.308441,335.243317 250.990158,335.163666 
	C251.201233,336.535706 251.472244,337.497986 251.477707,338.461761 
	C251.515335,345.098297 251.497513,351.735168 251.497513,358.797485 
	C242.306473,360.019684 243.306763,350.419983 238.006088,347.130646 
	C238.006088,351.053070 238.006088,354.733978 238.006088,358.764160 
	C235.902405,358.858826 234.329910,358.929565 232.073990,359.031097 
	C232.073990,356.867493 232.073990,355.094269 232.073990,352.843475 
z"/>
<path fill="#3C7E30" opacity="1.000000" stroke="none" 
	d="
M275.369598,350.708679 
	C274.359467,357.045593 270.639496,359.932312 264.628632,359.432220 
	C258.563965,358.927704 256.005554,356.054108 255.961807,349.648621 
	C255.944794,347.157074 255.811020,344.648071 256.046082,342.177063 
	C256.496826,337.438965 260.468811,334.646729 266.163086,334.838593 
	C271.771942,335.027527 274.552704,337.456818 275.114624,343.887878 
	C272.735931,342.805817 270.959778,341.822296 269.066345,341.190063 
	C267.443451,340.648163 265.475861,339.899719 264.057434,340.390167 
	C262.990112,340.759125 262.221161,342.876831 261.917419,344.340210 
	C261.553711,346.092834 261.505249,348.054138 261.918518,349.782013 
	C262.287872,351.326172 263.170807,353.433899 264.374268,353.910095 
	C265.732269,354.447388 267.701508,353.439880 269.450531,353.095215 
	C267.478180,350.609131 266.096405,348.867462 264.714661,347.125824 
	C265.086975,346.753021 265.459290,346.380249 265.831573,346.007446 
	C268.770844,346.007446 271.710114,346.007446 275.042358,346.007446 
	C275.154633,347.464386 275.264496,348.890350 275.369598,350.708679 
z"/>
<path fill="#3D7F32" opacity="1.000000" stroke="none" 
	d="
M289.932373,344.059265 
	C289.932373,340.952606 289.932373,338.335480 289.932373,335.815857 
	C294.833862,334.919800 294.833862,334.919800 296.282318,344.082245 
	C298.482117,344.082245 300.723114,344.082245 303.330811,344.082245 
	C303.532440,341.179901 303.722504,338.443817 303.932434,335.421692 
	C305.673798,335.421692 307.234772,335.421692 309.046875,335.421692 
	C309.046875,343.235382 309.046875,350.822083 309.046875,358.714905 
	C307.396637,358.714905 305.827820,358.714905 303.901733,358.714905 
	C303.741638,355.922211 303.583801,353.168823 303.411652,350.165955 
	C301.030457,350.165955 298.760101,350.165955 295.978271,350.165955 
	C295.824646,352.820923 295.667206,355.541718 295.486084,358.672119 
	C293.775116,358.815918 292.213623,358.947113 289.932373,359.138824 
	C289.932373,354.065063 289.932373,349.306915 289.932373,344.059265 
z"/>
<path fill="#3A7D2E" opacity="1.000000" stroke="none" 
	d="
M372.877136,359.013275 
	C368.748169,359.013275 365.094849,359.013275 361.071289,359.013275 
	C361.071289,351.026337 361.071289,343.315887 361.071289,335.364441 
	C366.694794,335.364441 372.132355,335.364441 377.957703,335.364441 
	C378.069153,336.840546 378.176483,338.261749 378.256805,339.325348 
	C374.626068,342.300049 368.802551,337.311066 365.747528,344.006531 
	C369.868011,344.006531 373.110474,344.006531 376.739380,344.006531 
	C376.833710,345.917999 376.900879,347.279327 376.987885,349.042480 
	C373.481934,349.042480 370.361084,349.042480 366.824280,349.042480 
	C366.654938,350.740021 366.518921,352.103271 366.343811,353.858551 
	C370.560577,353.858551 374.354675,353.858551 378.564026,353.858551 
	C378.733368,355.541351 378.871857,356.917938 379.082703,359.013275 
	C376.896423,359.013275 375.124603,359.013275 372.877136,359.013275 
z"/>
<path fill="#3C7E30" opacity="1.000000" stroke="none" 
	d="
M161.536224,344.148438 
	C165.695999,343.726685 165.559158,345.979065 165.045929,349.010437 
	C161.772034,349.010437 158.522018,349.010437 155.059143,349.010437 
	C154.970093,350.765625 154.905167,352.045105 154.819672,353.730042 
	C158.827499,353.730042 162.600418,353.730042 166.760986,353.730042 
	C166.760986,355.647339 166.760986,357.175507 166.760986,358.862854 
	C160.982788,358.862854 155.356766,358.862854 149.333389,358.862854 
	C149.333389,351.084045 149.333389,343.391754 149.333389,335.136292 
	C154.438751,335.136292 159.396896,335.022339 164.339355,335.249634 
	C165.153152,335.287079 166.671265,337.044159 166.506775,337.616455 
	C166.205368,338.665192 165.000061,339.988434 163.977921,340.183838 
	C161.886902,340.583588 159.622787,340.054565 157.519012,340.420319 
	C156.377594,340.618774 155.419250,341.870178 154.378326,342.646606 
	C154.665710,343.147156 154.953110,343.647675 155.240494,344.148193 
	C157.193665,344.148193 159.146820,344.148193 161.536224,344.148438 
z"/>
<path fill="#438337" opacity="1.000000" stroke="none" 
	d="
M129.849091,357.593079 
	C128.140808,358.452850 126.514076,358.869476 124.072952,359.494690 
	C124.072952,351.584473 123.976723,344.491425 124.206703,337.408936 
	C124.232582,336.611755 126.118889,335.258179 127.111786,335.285339 
	C128.076080,335.311676 129.583817,336.647247 129.817276,337.649200 
	C130.254379,339.525146 129.943039,341.575500 129.943039,343.932587 
	C132.551880,343.932587 134.921906,343.932587 137.654892,343.932587 
	C137.808716,341.228180 137.965088,338.478882 138.138519,335.429443 
	C139.907303,335.429443 141.459610,335.429443 143.358795,335.429443 
	C143.358795,343.175079 143.358795,350.735382 143.358795,358.728912 
	C141.717331,358.846863 140.157990,358.958923 138.079681,359.108276 
	C138.079681,356.033051 138.079681,353.293274 138.079681,350.240906 
	C135.215164,350.240906 132.837341,350.240906 129.930664,350.240906 
	C129.930664,352.595123 129.930664,354.872559 129.849091,357.593079 
z"/>
<path fill="#3D7F32" opacity="1.000000" stroke="none" 
	d="
M329.713470,357.839905 
	C319.352356,361.832947 313.980103,358.193207 313.975189,347.592773 
	C313.970520,337.499207 317.914337,333.393463 326.206543,335.050873 
	C330.351624,335.879395 333.361359,338.260651 333.206940,342.791809 
	C333.033539,347.878876 335.235077,353.593567 329.713470,357.839905 
M319.839996,342.951874 
	C319.826477,345.591156 319.434692,348.308105 319.953918,350.838043 
	C320.226654,352.166840 322.167511,354.158997 323.224182,354.080841 
	C324.736053,353.969055 326.829071,352.521484 327.398376,351.124451 
	C328.154755,349.268524 327.986298,346.861542 327.640991,344.786896 
	C327.373596,343.180237 326.410034,340.607544 325.426514,340.443909 
	C323.759949,340.166626 321.833435,341.451385 319.839996,342.951874 
z"/>
<path fill="#3C7E30" opacity="1.000000" stroke="none" 
	d="
M188.099426,347.747192 
	C189.468246,351.523865 190.729904,354.925934 191.991547,358.328003 
	C191.688797,358.777679 191.386032,359.227325 191.083267,359.677002 
	C189.204254,358.570496 187.429138,356.834076 185.422226,356.503082 
	C182.306671,355.989258 178.965454,356.053467 175.851822,356.610291 
	C173.937469,356.952698 172.268768,358.668579 170.489777,359.767792 
	C170.089722,359.321503 169.689651,358.875244 169.289597,358.428986 
	C171.895401,351.350128 174.406128,344.233154 177.214020,337.235382 
	C177.615005,336.236023 179.517761,335.179443 180.612000,335.288422 
	C181.919220,335.418640 183.663544,336.498535 184.234375,337.653442 
	C185.767227,340.754669 186.775620,344.115082 188.099426,347.747192 
z"/>
<path fill="#3D7F32" opacity="1.000000" stroke="none" 
	d="
M337.932373,345.033691 
	C337.932373,341.595764 337.932373,338.648285 337.932373,335.352478 
	C342.066620,335.352478 345.716370,334.995789 349.266144,335.439240 
	C354.124969,336.046265 356.760681,339.467834 356.561554,343.982178 
	C356.362976,348.483795 353.481354,351.355682 348.520020,351.919373 
	C347.065643,352.084625 345.594025,352.098358 343.976562,352.190247 
	C343.766510,354.502106 343.577240,356.585205 343.373566,358.826691 
	C341.569580,358.826691 340.105286,358.826691 337.932373,358.826691 
	C337.932373,354.384552 337.932373,349.954346 337.932373,345.033691 
M350.662537,345.194336 
	C351.447266,339.291443 347.520569,340.478577 343.919037,340.484711 
	C343.919037,342.765320 343.919037,344.675232 343.919037,347.424103 
	C346.253906,346.821991 348.194275,346.321594 350.662537,345.194336 
z"/>
<path fill="#3C7E30" opacity="1.000000" stroke="none" 
	d="
M215.147659,356.120850 
	C219.674713,351.672394 219.877167,344.975983 215.834534,339.688538 
	C215.252258,338.926971 215.175949,337.434204 215.474045,336.467468 
	C215.666122,335.844543 216.952423,335.232635 217.777924,335.190094 
	C220.733124,335.037811 223.700958,335.130463 228.256256,335.130463 
	C223.821091,343.148163 221.266403,350.837311 228.895081,358.301239 
	C228.327530,358.536713 227.759995,358.772217 227.192444,359.007690 
	C223.942734,359.007690 220.679016,359.171387 217.452881,358.895630 
	C216.618713,358.824341 215.902344,357.374847 215.147659,356.120850 
z"/>
<path fill="#3C7E30" opacity="1.000000" stroke="none" 
	d="
M195.073975,350.924164 
	C195.075546,346.292267 194.884735,342.131561 195.213974,338.012390 
	C195.296249,336.983154 197.062393,335.332092 198.038498,335.343506 
	C199.013290,335.354950 200.742111,337.048676 200.800415,338.080566 
	C201.088196,343.174011 200.931335,348.292542 200.931335,353.773438 
	C204.697968,353.773438 208.116730,353.773438 211.888580,353.773438 
	C211.888580,355.686981 211.888580,357.223541 211.888580,358.834229 
	C206.347397,358.834229 201.082703,358.834229 195.073975,358.834229 
	C195.073975,356.244385 195.073975,353.827545 195.073975,350.924164 
z"/>
<path fill="#C0EBA6" opacity="1.000000" stroke="none" 
	d="
M265.058868,212.076202 
	C262.058594,203.932510 265.825226,196.104767 274.509094,192.341537 
	C282.135529,189.036575 289.751495,185.706955 297.353546,182.346329 
	C301.363190,180.573792 305.425598,178.339005 309.085541,182.790588 
	C311.307159,185.492706 310.595825,193.486832 307.091919,196.185364 
	C302.309052,199.868896 296.759277,202.559311 291.521820,205.647583 
	C290.539459,206.226852 289.479980,206.675323 287.865845,207.501831 
	C283.907288,209.155197 280.397186,210.220474 277.206024,211.893967 
	C273.072601,214.061630 269.149078,214.561584 265.058868,212.076202 
z"/>
<path fill="#C0EBA6" opacity="1.000000" stroke="none" 
	d="
M246.022202,221.804398 
	C251.239471,218.665970 259.675385,220.515793 263.160675,226.594070 
	C267.270447,233.761414 270.368500,241.512161 273.843658,249.038391 
	C275.025360,251.597641 276.479553,254.161591 276.961060,256.873962 
	C277.375549,259.209015 277.472321,262.732544 276.109100,263.976135 
	C274.235687,265.685150 270.742310,266.635895 268.140015,266.314941 
	C262.849762,265.662476 259.365875,261.936920 257.067474,257.205170 
	C255.113297,253.182129 253.204193,249.137177 251.007645,244.539413 
	C249.244141,240.185730 247.908478,236.320724 246.206741,232.624237 
	C244.523407,228.967697 243.999680,225.448746 246.022202,221.804398 
z"/>
<path fill="#C0EBA6" opacity="1.000000" stroke="none" 
	d="
M254.153259,193.895233 
	C245.315979,195.130920 239.494461,191.314499 236.052933,183.271973 
	C232.397232,174.728882 228.524460,166.278198 224.908829,157.718582 
	C222.487549,151.986465 225.551941,147.717804 231.826431,148.034485 
	C239.001633,148.396606 243.125168,152.808289 245.880676,158.995850 
	C247.415833,162.443069 249.196503,165.780960 251.107040,169.713547 
	C252.635498,173.787079 253.596222,177.482666 255.294571,180.800705 
	C257.399231,184.912613 257.930176,188.852173 255.997772,193.068375 
	C255.997772,193.068375 256.001190,192.997543 255.745483,192.973038 
	C255.044281,193.264099 254.598770,193.579651 254.153259,193.895233 
z"/>
<path fill="#C0EBA6" opacity="1.000000" stroke="none" 
	d="
M237.224976,203.036377 
	C239.511108,210.638367 235.744171,218.531265 228.354813,221.734573 
	C220.742813,225.034409 213.122849,228.318542 205.560959,231.730530 
	C198.502335,234.915421 194.811172,234.788254 192.611847,231.026413 
	C190.301086,227.074036 192.343918,219.035034 197.187485,216.028687 
	C202.372925,212.810150 208.075134,210.424225 214.136993,207.353302 
	C218.225525,205.630157 221.854752,204.474808 225.200363,202.764664 
	C229.373703,200.631424 233.274475,200.270004 237.224976,203.036377 
z"/>
<path fill="#387B2B" opacity="1.000000" stroke="none" 
	d="
M237.136658,202.680527 
	C233.274475,200.270004 229.373703,200.631424 225.200363,202.764664 
	C221.854752,204.474808 218.225525,205.630157 214.341080,207.083633 
	C209.429306,205.105515 204.815018,203.240906 200.388626,201.004425 
	C194.565338,198.062180 191.398697,193.350464 191.815979,186.591309 
	C192.105270,181.905090 195.546722,178.993103 199.907242,180.742050 
	C210.339478,184.926315 220.704529,189.355408 230.746292,194.385223 
	C233.485352,195.757202 234.981674,199.610245 237.136658,202.680527 
z"/>
<path fill="#387B2B" opacity="1.000000" stroke="none" 
	d="
M256.357056,193.061646 
	C257.930176,188.852173 257.399231,184.912613 255.294571,180.800705 
	C253.596222,177.482666 252.635498,173.787079 251.449615,169.926056 
	C253.421738,165.334442 255.132477,160.996552 257.200684,156.836380 
	C260.019318,151.166626 264.612244,147.950546 271.113678,147.991302 
	C276.249664,148.023499 279.364075,151.976746 277.442413,156.689804 
	C273.367096,166.684906 269.151154,176.649567 264.338623,186.300461 
	C262.933502,189.118225 259.318451,190.834000 256.357056,193.061646 
z"/>
<path fill="#387B2B" opacity="1.000000" stroke="none" 
	d="
M245.646484,221.815857 
	C243.999680,225.448746 244.523407,228.967697 246.206741,232.624237 
	C247.908478,236.320724 249.244141,240.185730 250.692474,244.329681 
	C248.752625,248.907669 246.950516,253.176193 244.945923,257.347412 
	C242.309418,262.833496 238.013443,266.250031 231.811310,266.589844 
	C225.706085,266.924316 222.516434,262.460449 224.875809,256.833740 
	C228.781479,247.519333 232.573807,238.125854 237.156036,229.144333 
	C238.702026,226.114075 242.501282,224.233383 245.646484,221.815857 
z"/>
<path fill="#377B2B" opacity="1.000000" stroke="none" 
	d="
M265.055847,212.426636 
	C269.149078,214.561584 273.072601,214.061630 277.206024,211.893967 
	C280.397186,210.220474 283.907288,209.155197 287.669128,207.773712 
	C292.462494,209.653992 296.937317,211.427429 301.243530,213.543976 
	C306.878174,216.313492 310.238068,220.732285 310.179016,227.295853 
	C310.131470,232.581696 306.115234,235.718765 301.167999,233.679840 
	C291.218048,229.579102 281.297699,225.338516 271.701202,220.490448 
	C268.900879,219.075745 267.237366,215.410660 265.055847,212.426636 
z"/>
<path fill="#FCCE2F" opacity="1.000000" stroke="none" 
	d="
M178.239136,218.512680 
	C168.207367,220.613388 161.839386,210.476273 164.809921,203.419632 
	C167.055679,198.084702 171.284439,195.406204 177.402420,196.009781 
	C181.969421,196.460342 186.293808,200.741180 186.948318,205.459579 
	C187.782227,211.471298 185.027527,215.749527 178.239136,218.512680 
z"/>
<path fill="#FCCE2F" opacity="1.000000" stroke="none" 
	d="
M336.692505,212.404205 
	C333.680725,217.652451 329.383972,219.570206 323.920776,218.526917 
	C319.234955,217.632080 316.208710,214.497299 315.202576,209.981628 
	C314.106232,205.061020 315.729553,200.822952 319.970398,197.787247 
	C323.614471,195.178726 329.373077,195.218582 333.011932,197.903214 
	C337.447449,201.175598 338.750824,205.945251 336.692505,212.404205 
z"/>
<path fill="#FCCE2E" opacity="1.000000" stroke="none" 
	d="
M257.951172,122.842255 
	C263.384491,128.353470 263.666016,135.787460 258.929443,140.237167 
	C254.305435,144.581177 246.671463,144.268005 242.398575,139.558975 
	C239.059525,135.879105 238.892197,128.727066 241.878662,124.802353 
	C244.767700,121.005653 251.673019,119.108574 257.951172,122.842255 
z"/>
<path fill="#FCCE2D" opacity="1.000000" stroke="none" 
	d="
M242.143829,275.332336 
	C246.623520,271.078766 251.370117,270.233185 256.588745,272.827576 
	C261.516174,275.277161 262.541138,279.609344 262.079956,284.618164 
	C261.596954,289.864166 256.728210,294.013336 251.007370,294.014374 
	C245.233856,294.015472 240.076614,289.921478 240.047180,284.642487 
	C240.030441,281.642792 241.240128,278.636261 242.143829,275.332336 
z"/>
<path fill="#387B2B" opacity="1.000000" stroke="none" 
	d="
M254.439392,193.874023 
	C254.598770,193.579651 255.044281,193.264099 255.780899,192.974487 
	C255.623184,193.284561 255.174362,193.568695 254.439392,193.874023 
z"/>
<path fill="#F7FAF7" opacity="1.000000" stroke="none" 
	d="
M319.928101,342.515717 
	C321.833435,341.451385 323.759949,340.166626 325.426514,340.443909 
	C326.410034,340.607544 327.373596,343.180237 327.640991,344.786896 
	C327.986298,346.861542 328.154755,349.268524 327.398376,351.124451 
	C326.829071,352.521484 324.736053,353.969055 323.224182,354.080841 
	C322.167511,354.158997 320.226654,352.166840 319.953918,350.838043 
	C319.434692,348.308105 319.826477,345.591156 319.928101,342.515717 
z"/>
<path fill="#F7FAF7" opacity="1.000000" stroke="none" 
	d="
M350.398590,345.507782 
	C348.194275,346.321594 346.253906,346.821991 343.919037,347.424103 
	C343.919037,344.675232 343.919037,342.765320 343.919037,340.484711 
	C347.520569,340.478577 351.447266,339.291443 350.398590,345.507782 
z"/>
</svg>